<?xml version="1.0" encoding="iso-8859-1"?>
<!-- Generator: Adobe Illustrator 19.0.0, SVG Export Plug-In . SVG Version: 6.00 Build 0)  -->
<svg version="1.1" id="Layer_1" xmlns="http://www.w3.org/2000/svg" xmlns:xlink="http://www.w3.org/1999/xlink" x="0px" y="0px"
	 viewBox="0 0 496 496" style="enable-background:new 0 0 496 496;" xml:space="preserve">
<path style="fill:#C91911;" d="M366.4,69.173c0,19.2-15.2,36-34.4,36H164c-19.2,0-34.4-16.8-34.4-36l0,0c0-19.2,15.2-36,34.4-36
	h167.2C351.2,33.173,366.4,49.973,366.4,69.173L366.4,69.173z"/>
<path style="fill:#ED1B1B;" d="M80,186.773c0,12.8-10.4,22.4-22.4,22.4H36.8c-12.8,0-22.4-10.4-22.4-23.2l0,0
	c0-12.8,10.4-24.8,23.2-24.8h20c12.8,0,22.4,10.4,22.4,22.4V186.773z"/>
<path style="fill:#C91911;" d="M80,185.173L80,185.173c0,12.8-10.4,24-22.4,24H36.8c-12.8,0-22.4-10.4-22.4-23.2l0,0"/>
<path style="fill:#ED1B1B;" d="M481.6,185.973c0-12.8-10.4-24.8-22.4-24.8h-20c-12.8,0-22.4,10.4-22.4,22.4v3.2
	c0,12.8,10.4,22.4,22.4,22.4H460C471.2,209.173,481.6,198.773,481.6,185.973L481.6,185.973z"/>
<path style="fill:#C91911;" d="M416,185.173L416,185.173c0,12.8,10.4,24,22.4,24h20.8c12.8,0,22.4-10.4,22.4-23.2l0,0"/>
<polygon style="fill:#8E0707;" points="445.6,249.173 50.4,249.173 123.2,74.773 372.8,76.373 "/>
<polygon style="fill:#A4E6F7;" points="425.6,249.173 70.4,249.173 133.6,81.173 362.4,81.173 "/>
<polygon style="fill:#7DCEEA;" points="425.6,249.173 70.4,249.173 171.2,105.973 362.4,78.773 "/>
<polyline style="fill:#58ADC4;" points="363.2,78.773 425.6,249.173 72,249.173 "/>
<path style="fill:#ED1B1B;" d="M344,196.373c0,13.6-8,28.8-21.6,28.8H173.6c-13.6,0-21.6-14.4-21.6-28.8v-25.6
	c0-13.6,8-25.6,21.6-25.6h148.8c13.6,0,21.6,12,21.6,25.6L344,196.373L344,196.373z"/>
<path style="fill:#768689;" d="M336,204.373c0,12-9.6,20.8-20.8,20.8H188.8c-12,0-20.8-9.6-20.8-20.8v-21.6c0-12,9.6-20.8,20.8-20.8
	h125.6c12,0,20.8,9.6,20.8,20.8v21.6H336z"/>
<path style="fill:#8BA1A5;" d="M336,212.373c0,12-9.6,20.8-20.8,20.8H188.8c-12,0-20.8-9.6-20.8-20.8v-21.6c0-12,9.6-20.8,20.8-20.8
	h125.6c12,0,20.8,9.6,20.8,20.8v21.6H336z"/>
<path style="fill:#516768;" d="M350.4,365.173c0,10.4-8,20-18.4,20H163.2c-10.4,0-18.4-9.6-18.4-20l0,0c0-10.4,8-20,18.4-20H332
	C342.4,345.173,350.4,354.773,350.4,365.173L350.4,365.173z"/>
<g>
	<path style="fill:#6B7D7F;" d="M144,377.973c0,12.8-10.4,23.2-23.2,23.2h-1.6c-12.8,0-23.2-10.4-23.2-23.2v-33.6
		c0-12.8,10.4-23.2,23.2-23.2h1.6c12.8,0,23.2,10.4,23.2,23.2V377.973z"/>
	<path style="fill:#6B7D7F;" d="M168,368.373c0,12.8-11.2,23.2-24,23.2l0,0c-12.8,0-24-10.4-24-23.2v-31.2c0-12.8,11.2-23.2,24-23.2
		l0,0c12.8,0,24,10.4,24,23.2V368.373z"/>
	<path style="fill:#6B7D7F;" d="M400,344.373c0-12.8-10.4-23.2-23.2-23.2h-1.6c-12.8,0-23.2,10.4-23.2,23.2v33.6
		c0,12.8,10.4,23.2,23.2,23.2h1.6c12.8,0,23.2-10.4,23.2-23.2V344.373z"/>
	<path style="fill:#6B7D7F;" d="M328,368.373c0,12.8,11.2,23.2,24,23.2l0,0c12.8,0,24-10.4,24-23.2v-31.2c0-12.8-11.2-23.2-24-23.2
		l0,0c-12.8,0-24,10.4-24,23.2V368.373z"/>
</g>
<path style="fill:#333232;" d="M112,437.973c0,27.2-24.8,24.8-52,24.8l0,0c-27.2,0-52-21.6-52-48.8v-99.2c0-27.2,24.8-48.8,52-48.8
	l0,0c27.2,0,52,21.6,52,48.8V437.973z"/>
<path style="fill:#0A0A0A;" d="M61.6,266.773L61.6,266.773c27.2,0,50.4,21.6,50.4,48.8v122.4c0,27.2-22.4,24.8-49.6,24.8l0,0"/>
<path style="fill:#333232;" d="M384,437.973c0,27.2,24.8,24.8,52,24.8l0,0c27.2,0,52-21.6,52-48.8v-99.2c0-27.2-24.8-48.8-52-48.8
	l0,0c-27.2,0-52,21.6-52,48.8V437.973z"/>
<path style="fill:#0A0A0A;" d="M434.4,266.773L434.4,266.773c-27.2,0-50.4,21.6-50.4,48.8v122.4c0,27.2,22.4,24.8,49.6,24.8l0,0"/>
<path style="fill:#C91911;" d="M40,245.973c-24,1.6-40,19.2-40,40.8v82.4h40V245.973z"/>
<polyline style="fill:#8E0707;" points="0,369.173 40,369.173 40,249.173 "/>
<path style="fill:#C91911;" d="M456,245.973c24,1.6,40,19.2,40,40.8v82.4h-40V245.973z"/>
<polyline style="fill:#8E0707;" points="496,369.173 456,369.173 456,249.173 "/>
<g>
	<circle style="fill:#768689;" cx="183.2" cy="193.973" r="4"/>
	<circle style="fill:#768689;" cx="201.6" cy="193.973" r="4"/>
	<circle style="fill:#768689;" cx="220" cy="193.973" r="4"/>
	<circle style="fill:#768689;" cx="238.4" cy="193.973" r="4"/>
	<circle style="fill:#768689;" cx="257.6" cy="193.973" r="4"/>
	<circle style="fill:#768689;" cx="276" cy="193.973" r="4"/>
	<circle style="fill:#768689;" cx="294.4" cy="193.973" r="4"/>
	<circle style="fill:#768689;" cx="312.8" cy="193.973" r="4"/>
</g>
<path style="fill:#C91911;" d="M464,329.173v-63.2c0-38.4-28-72.8-67.2-72.8H99.2c-39.2,0-67.2,33.6-67.2,72.8v63.2H464z"/>
<polyline style="fill:#AA0E0E;" points="32,265.173 32,329.173 464,329.173 464,265.173 "/>
<path style="fill:#768689;" d="M453.6,269.173c0,24,1.6,44-22.4,44H72c-24,0-29.6-20-29.6-44l0,0c0-24,19.2-44,44-44h324.8
	C434.4,225.173,453.6,245.173,453.6,269.173L453.6,269.173z"/>
<path style="fill:#ACC1C6;" d="M410.4,241.173H85.6c-23.2,0-41.6,15.2-43.2,37.6c0.8,20.8,7.2,34.4,29.6,34.4h359.2
	c20.8,0,24.8-12,24.8-31.2c0,0,0,0,0-0.8C456,257.173,434.4,241.173,410.4,241.173z"/>
<path style="fill:#8BA1A5;" d="M42.4,278.773c0.8,20.8,7.2,34.4,29.6,34.4h359.2c20.8,0,24.8-11.2,24.8-34.4l0,0"/>
<path style="fill:#768689;" d="M122.4,272.373c0,16.8-13.6,40-30.4,40s-30.4-23.2-30.4-40s13.6-30.4,30.4-30.4
	C108.8,241.973,122.4,255.573,122.4,272.373z"/>
<circle style="fill:#F7E10F;" cx="92" cy="272.373" r="30.4"/>
<path style="fill:#F2CD14;" d="M92,241.973c16.8,0,30.4,13.6,30.4,30.4c0,16.8-13.6,30.4-30.4,30.4"/>
<g>
	
		<ellipse transform="matrix(-0.7332 -0.68 0.68 -0.7332 -40.9204 501.7595)" style="fill:#F4F47F;" cx="77.97" cy="258.907" rx="5.6" ry="15.2"/>
	<circle style="fill:#F4F47F;" cx="71.2" cy="278.773" r="3.2"/>
	<circle style="fill:#F4F47F;" cx="76" cy="288.373" r="1.6"/>
</g>
<path style="fill:#768689;" d="M433.6,272.373c0,16.8-13.6,40-30.4,40s-30.4-23.2-30.4-40s13.6-30.4,30.4-30.4
	C420,241.973,433.6,255.573,433.6,272.373z"/>
<circle style="fill:#F7E10F;" cx="404" cy="272.373" r="30.4"/>
<path style="fill:#F2CD14;" d="M404,241.973c16.8,0,30.4,13.6,30.4,30.4c0,16.8-13.6,30.4-30.4,30.4"/>
<g>
	
		<ellipse transform="matrix(-0.7332 -0.68 0.68 -0.7332 499.7975 713.0919)" style="fill:#F4F47F;" cx="389.786" cy="258.501" rx="5.6" ry="15.2"/>
	<circle style="fill:#F4F47F;" cx="382.4" cy="278.773" r="3.2"/>
	<circle style="fill:#F4F47F;" cx="387.2" cy="288.373" r="1.6"/>
</g>
<g>
	<path style="fill:#768689;" d="M152,309.973c0,1.6-1.6,3.2-3.2,3.2h-1.6c-1.6,0-3.2-1.6-3.2-3.2v-65.6c0-1.6,1.6-3.2,3.2-3.2h1.6
		c1.6,0,3.2,1.6,3.2,3.2V309.973z"/>
	<path style="fill:#768689;" d="M168,309.973c0,1.6-1.6,3.2-3.2,3.2h-1.6c-1.6,0-3.2-1.6-3.2-3.2v-65.6c0-1.6,1.6-3.2,3.2-3.2h1.6
		c1.6,0,3.2,1.6,3.2,3.2V309.973z"/>
	<path style="fill:#768689;" d="M184,309.973c0,1.6-1.6,3.2-3.2,3.2h-1.6c-1.6,0-3.2-1.6-3.2-3.2v-65.6c0-1.6,1.6-3.2,3.2-3.2h1.6
		c1.6,0,3.2,1.6,3.2,3.2V309.973z"/>
	<path style="fill:#768689;" d="M200,309.973c0,1.6-1.6,3.2-3.2,3.2h-1.6c-1.6,0-3.2-1.6-3.2-3.2v-65.6c0-1.6,1.6-3.2,3.2-3.2h1.6
		c1.6,0,3.2,1.6,3.2,3.2V309.973z"/>
	<path style="fill:#768689;" d="M304,309.973c0,1.6-1.6,3.2-3.2,3.2h-1.6c-1.6,0-3.2-1.6-3.2-3.2v-65.6c0-1.6,1.6-3.2,3.2-3.2h1.6
		c1.6,0,3.2,1.6,3.2,3.2V309.973z"/>
	<path style="fill:#768689;" d="M320,309.973c0,1.6-1.6,3.2-3.2,3.2h-1.6c-1.6,0-3.2-1.6-3.2-3.2v-65.6c0-1.6,1.6-3.2,3.2-3.2h1.6
		c1.6,0,3.2,1.6,3.2,3.2V309.973z"/>
	<path style="fill:#768689;" d="M352,309.973c0,1.6-1.6,3.2-3.2,3.2h-1.6c-1.6,0-3.2-1.6-3.2-3.2v-65.6c0-1.6,1.6-3.2,3.2-3.2h1.6
		c1.6,0,3.2,1.6,3.2,3.2V309.973z"/>
	<path style="fill:#768689;" d="M336,309.973c0,1.6-1.6,3.2-3.2,3.2h-1.6c-1.6,0-3.2-1.6-3.2-3.2v-65.6c0-1.6,1.6-3.2,3.2-3.2h1.6
		c1.6,0,3.2,1.6,3.2,3.2V309.973z"/>
</g>
<polygon style="fill:#B6D4D8;" points="272.8,278.773 248,303.573 223.2,278.773 248,241.173 "/>
<polygon style="fill:#8BA1A5;" points="263.2,277.173 248,292.373 233.6,277.173 248,254.773 "/>
<polygon style="fill:#ACC1C6;" points="263.2,277.173 248,275.573 233.6,277.173 248,261.973 "/>
<path style="fill:#ED1B1B;" d="M471.2,337.173c0,13.6-4,24-16.8,24H41.6c-13.6,0-16.8-10.4-16.8-24l0,0c0-13.6,10.4-24,24-24h398.4
	C460.8,313.173,471.2,323.573,471.2,337.173L471.2,337.173z"/>
<path style="fill:#C91911;" d="M471.2,337.173L471.2,337.173c0,13.6-4,24-16.8,24H41.6c-13.6,0-16.8-11.2-16.8-24l0,0"/>
<g>
	<circle style="fill:#768689;" cx="183.2" cy="169.973" r="4"/>
	<circle style="fill:#768689;" cx="201.6" cy="169.973" r="4"/>
	<circle style="fill:#768689;" cx="220" cy="169.973" r="4"/>
	<circle style="fill:#768689;" cx="238.4" cy="169.973" r="4"/>
	<circle style="fill:#768689;" cx="257.6" cy="169.973" r="4"/>
	<circle style="fill:#768689;" cx="276" cy="169.973" r="4"/>
	<circle style="fill:#768689;" cx="294.4" cy="169.973" r="4"/>
	<circle style="fill:#768689;" cx="312.8" cy="169.973" r="4"/>
	<circle style="fill:#768689;" cx="183.2" cy="181.973" r="4"/>
	<circle style="fill:#768689;" cx="201.6" cy="181.973" r="4"/>
	<circle style="fill:#768689;" cx="220" cy="181.973" r="4"/>
	<circle style="fill:#768689;" cx="238.4" cy="181.973" r="4"/>
	<circle style="fill:#768689;" cx="257.6" cy="181.973" r="4"/>
	<circle style="fill:#768689;" cx="276" cy="181.973" r="4"/>
	<circle style="fill:#768689;" cx="294.4" cy="181.973" r="4"/>
	<circle style="fill:#768689;" cx="312.8" cy="181.973" r="4"/>
</g>
<path style="fill:#ED1B1B;" d="M378.4,69.173c0,7.2-5.6,12-13.6,12H130.4c-7.2,0-13.6-4.8-13.6-12l0,0c0-7.2,5.6-12,13.6-12h234.4
	C372.8,57.173,378.4,61.973,378.4,69.173L378.4,69.173z"/>
<path style="fill:#C91911;" d="M378.4,68.373L378.4,68.373c0,7.2-5.6,12.8-13.6,12.8H130.4c-7.2,0-13.6-5.6-13.6-12.8l0,0"/>
<g>
</g>
<g>
</g>
<g>
</g>
<g>
</g>
<g>
</g>
<g>
</g>
<g>
</g>
<g>
</g>
<g>
</g>
<g>
</g>
<g>
</g>
<g>
</g>
<g>
</g>
<g>
</g>
<g>
</g>
</svg>
