<?xml version="1.0" encoding="iso-8859-1"?>
<!-- Generator: Adobe Illustrator 19.0.0, SVG Export Plug-In . SVG Version: 6.00 Build 0)  -->
<svg xmlns="http://www.w3.org/2000/svg" xmlns:xlink="http://www.w3.org/1999/xlink" version="1.1" id="Layer_1" x="0px" y="0px" viewBox="0 0 436.871 436.871" style="enable-background:new 0 0 436.871 436.871;" xml:space="preserve" width="512" height="512">
<g>
	<path style="fill:#E6E6E6;" d="M382.495,364.285h-21.04l-19.44-28.68l-13.47-19.86l-0.08-0.64   c15.32-1.73,29.569-6.959,41.929-14.89l2.391,0.96l2.84,18.45L382.495,364.285"/>
	<path style="fill:#E6E6E6;" d="M108.406,315.105l-0.081,0.64l-13.47,19.87l-19.44,28.67h-21.04l6.87-44.67l2.839-18.44l0.401-2.26   C77.306,307.575,92.265,313.295,108.406,315.105"/>
	<path style="fill:#CCCCCC;" d="M370.395,300.215c-12.36,7.93-26.61,13.16-41.929,14.89l0.08,0.64l13.47,19.86   c10.2-2.63,19.75-6.85,28.38-12.39c1.78-1.14,3.53-2.34,5.23-3.59l-2.84-18.45L370.395,300.215"/>
	<path style="fill:#E6E6E6;" d="M415.836,191.325v30.87c0,34.87-18.11,65.5-45.44,83.02c-12.36,7.93-26.61,13.16-41.929,14.89   c-3.67,0.42-7.401,0.64-11.181,0.64H119.586c-3.78,0-7.511-0.22-11.18-0.64c-16.141-1.81-31.1-7.53-43.92-16.19   c-26.21-17.72-43.45-47.7-43.45-81.72v-30.87H415.836"/>
	<polyline style="fill:#A5A5A5;" points="51.036,191.324 21.036,191.324 21.036,191.325 415.836,191.325 415.836,206.325    415.836,191.325 51.036,191.325 51.036,191.324  "/>
	<polyline style="fill:#979797;" points="51.036,191.324 35.383,191.324 35.383,191.324 21.036,191.324 51.036,191.324  "/>
	<path style="fill:#A5A5A5;" d="M108.406,320.105L108.406,320.105c0.664,0.076,1.33,0.146,1.998,0.208   C109.736,320.251,109.07,320.181,108.406,320.105L108.406,320.105 M21.036,222.195v0.002c0,27.1,10.942,51.645,28.649,69.462   C31.979,273.841,21.036,249.301,21.036,222.195"/>
	<path style="fill:#CCCCCC;" d="M415.836,206.325v-15h-394.8v30.87c0,27.105,10.943,51.645,28.649,69.464   c4.303,4.33,9.018,8.25,14.06,11.725l-2.499,16.231c1.06,0.79,2.14,1.56,3.24,2.3c9.15,6.18,19.38,10.86,30.37,13.7l10.755-15.866   c0.928,0.131,1.859,0.251,2.795,0.356c0.664,0.076,1.33,0.146,1.998,0.208c3.022,0.283,6.086,0.428,9.186,0.428h30   c-3.786,0-7.519-0.216-11.187-0.636c-16.138-1.813-31.1-7.53-43.916-16.192C68.273,286.2,51.036,256.21,51.036,222.198v-15.873   H415.836z"/>
	<path style="fill:#87B6DD;" d="M41.925,140.187v25.038H20.492h-6.128v-15.069c0-5.506,4.463-9.969,9.969-9.969h0H41.925z"/>
	<path style="fill:#E6E6E6;" d="M99.429,111.786v21.21h-25.89v-21.21c0-7.34-5.98-13.31-13.31-13.31c-7.34,0-13.3,5.97-13.3,13.31   v64.75h-25.89v-64.75c0-12.22,5.62-23.15,14.4-30.34c6.76-5.54,15.39-8.86,24.79-8.86C81.849,72.586,99.429,90.166,99.429,111.786z   "/>
	<path style="fill:#CCCCCC;" d="M35.439,81.446v95.09h-14.4v-64.75C21.039,99.566,26.659,88.636,35.439,81.446z"/>
	<path style="fill:#E6E6E6;" d="M432.362,169.734c2.783,2.783,4.509,6.635,4.509,10.874c0,8.501-6.882,15.383-15.383,15.383h-5.653   h-394.8h-5.653c-4.25,0-8.09-1.716-10.874-4.499C1.726,188.709,0,184.858,0,180.607c0-8.49,6.882-15.383,15.383-15.383h31.543   h374.563C425.738,165.225,429.579,166.951,432.362,169.734"/>
	<path style="fill:#CCCCCC;" d="M35.383,165.225h-20c-0.564,0-1.122,0.03-1.671,0.09C5.999,166.147,0,172.682,0,180.608   c0,3.818,1.393,7.315,3.694,10.003c0.26,0.304,0.532,0.598,0.814,0.88c2.783,2.783,6.624,4.499,10.874,4.499h5.653h14.348   c-4.25,0-8.091-1.716-10.874-4.499c-2.783-2.782-4.51-6.634-4.51-10.884C20,172.118,26.882,165.225,35.383,165.225"/>
	<path style="fill:#F24125;" d="M56.925,150.156v15.069H35.492h-6.128v-15.069c0-5.506,4.463-9.969,9.969-9.969h0h7.623   C52.462,140.187,56.925,144.65,56.925,150.156z"/>
</g>















</svg>
