<?xml version="1.0" encoding="iso-8859-1"?>
<!-- Generator: Adobe Illustrator 19.0.0, SVG Export Plug-In . SVG Version: 6.00 Build 0)  -->
<svg version="1.1" id="Layer_1" xmlns="http://www.w3.org/2000/svg" xmlns:xlink="http://www.w3.org/1999/xlink" x="0px" y="0px"
	 viewBox="0 0 511.999 511.999" style="enable-background:new 0 0 511.999 511.999;" xml:space="preserve">
<path style="fill:#57555C;" d="M479.921,66.038c-23.767-21.953-54.669-34.043-87.026-34.043c-70.736,0-128.28,57.544-128.28,128.272
	c0,47.312,20.293,81.859,65.808,112.008c24.879,16.47,66.63,51.222,66.63,98.832c0,49.396-34.059,90.876-79.89,102.495
	c0.436-13.858-0.941-30.873-6.553-50.306c-15.332-53.113-70.633-100.202-103.487-137.435c-22.475-25.474-35.12-69.806-40.87-95.283
	c22.685-14.7,37.768-40.123,37.768-69.166c0-45.562-36.939-82.497-82.5-82.497s-82.496,36.935-82.496,82.497
	c0,34.171,20.777,63.489,50.384,76.014c1.891,16.604,4.278,45.182,0.539,60.508c-5.476,22.449-32.853,41.614-16.974,83.228
	s24.64,44.899,24.093,67.348c-0.466,19.09-0.141,38.827-0.035,44.351H86.475c-18.947,0-34.307,15.361-34.307,34.31v24.826h44.899
	h43.804c0,0,124.11,0,169.193,0c46.597,0,122.035-69.825,122.035-140.891c0-63.986-51.59-107.696-82.32-128.05
	c-35.607-23.578-50.118-47.568-50.118-82.791c0-51.41,41.82-93.229,93.237-93.229c23.51,0,45.978,8.786,63.242,24.734
	c7.084,6.553,18.172,6.143,24.76-0.976C487.467,83.688,487.022,72.599,479.921,66.038z"/>
<path style="fill:#3B3A3C;" d="M310.513,423.297c-15.332-53.113-70.635-100.202-103.487-137.435
	c-22.475-25.474-35.12-69.806-40.87-95.283c22.685-14.7,37.768-40.123,37.768-69.166c0-11.281-2.271-22.03-6.37-31.824l8.46-11.289
	c18.991-22.356,16.264-55.873-6.09-74.865l0,0l-37.732,46.267c-12.028-6.853-25.935-10.787-40.767-10.787
	c-4.317,0-8.457,0.632-12.593,1.27c39.539,6.101,69.907,39.98,69.907,81.227c0,19.722-6.956,37.776-18.524,51.935
	c-11.406,13.961-16.04,32.198-10.524,49.362c7.108,22.118,17.557,46.609,32.15,63.15c32.853,37.234,88.155,84.322,103.487,137.435
	c5.612,19.434,23.81,44.336,31.693,39.956C316.596,451.558,314.804,438.149,310.513,423.297z"/>
<path style="fill:#787780;" d="M115.496,257.937c2.537-10.4,2.253-26.902,1.218-41.625c-0.766-10.882-6.833-20.434-15.864-26.555
	c-21.889-14.834-36.277-39.909-36.277-68.343c0-41.186,30.269-75.033,69.722-81.209c-4.193-0.656-8.402-1.288-12.778-1.288
	c-13.437,0-26.112,3.234-37.323,8.933L45.175,0l0,0c-22.354,18.991-25.082,52.51-6.09,74.865l8.078,10.778
	c-5.215,10.821-8.137,22.955-8.137,35.771c0,34.171,20.777,63.489,50.383,76.014c1.891,16.604,4.278,45.182,0.539,60.508
	c-5.476,22.449-32.853,41.614-16.974,83.228c15.878,41.614,24.639,44.899,24.093,67.348c-0.466,19.09-0.141,38.827-0.035,44.351
	H86.474c-18.948,0-34.307,15.36-34.307,34.307v24.828h25.551v-24.826c0-18.949,15.361-34.31,34.31-34.31h10.556
	c-0.107-5.524-0.431-25.262,0.035-44.351c0.548-22.449-8.213-25.734-24.093-67.348C82.643,299.551,110.022,280.386,115.496,257.937z
	"/>
<g>
	<path style="fill:#77DD00;" d="M81.48,109.774l-2.965,11.1l-2.467-11.1H65.123c0,10.943,8.871,19.813,19.813,19.813
		s19.813-8.87,19.813-19.813H81.48z"/>
	<path style="fill:#77DD00;" d="M145.674,109.774l-2.965,11.1l-2.467-11.1h-8.703c0,10.943,8.871,19.813,19.813,19.813
		c10.941,0,19.813-8.87,19.813-19.813H145.674z"/>
</g>
<g>
</g>
<g>
</g>
<g>
</g>
<g>
</g>
<g>
</g>
<g>
</g>
<g>
</g>
<g>
</g>
<g>
</g>
<g>
</g>
<g>
</g>
<g>
</g>
<g>
</g>
<g>
</g>
<g>
</g>
</svg>
