<?xml version="1.0" encoding="iso-8859-1"?>
<!-- Generator: Adobe Illustrator 19.0.0, SVG Export Plug-In . SVG Version: 6.00 Build 0)  -->
<svg xmlns="http://www.w3.org/2000/svg" xmlns:xlink="http://www.w3.org/1999/xlink" version="1.1" id="Layer_1" x="0px" y="0px" viewBox="0 0 418.113 418.113" style="enable-background:new 0 0 418.113 418.113;" xml:space="preserve" width="512" height="512">
<g>
	<path style="fill:#F7B239;" d="M395.569,122.659v111.37H22.549v-111.37c0-9.53,7.558-17.26,16.898-17.26h339.225   C388.002,105.399,395.569,113.129,395.569,122.659z"/>
	<path style="fill:#F7B239;" d="M44.279,70.934v150.095h-25.73V70.934c0-3.328,2.698-6.025,6.025-6.025h13.679   C41.582,64.909,44.279,67.607,44.279,70.934z"/>
	<path style="fill:#F7B239;" d="M399.569,70.934v152.095h-25.73V70.934c0-3.328,2.698-6.025,6.025-6.025h13.679   C396.872,64.909,399.569,67.607,399.569,70.934z"/>
	<path style="fill:#F7B239;" d="M0,218.052v97.992h418.113v-97.992c0-5.491-4.451-9.942-9.942-9.942H9.942   C4.451,208.11,0,212.561,0,218.052z"/>
	<path style="fill:#A17A36;" d="M115.116,170.395h-30c-19.06,0-34.5,15.45-34.5,34.5v0.002c0-19.053,15.446-34.498,34.499-34.498   h29.508C114.786,170.396,114.95,170.395,115.116,170.395"/>
	<polyline style="fill:#A17A36;" points="80.616,208.11 50.615,208.11 50.615,208.115 80.616,208.115 80.616,208.11  "/>
	<path style="fill:#A17A36;" d="M302.456,170.395h-29.99c-12.019,0-22.598,6.144-28.775,15.459   c6.177-9.314,16.757-15.455,28.771-15.455h29.499C302.126,170.396,302.29,170.395,302.456,170.395"/>
	<polyline style="fill:#A17A36;" points="267.966,208.11 237.966,208.11 237.966,208.115 267.966,208.115 267.966,208.11  "/>
	<polyline style="fill:#F7B239;" points="81.196,353.204 41.431,353.204 41.431,301.045 81.196,301.045 81.196,353.204  "/>
	<polyline style="fill:#F7B239;" points="376.681,353.204 336.917,353.204 336.917,301.045 376.681,301.045 376.681,353.204  "/>
	<polyline style="fill:#E5A030;" points="81.196,316.045 41.431,316.045 41.431,336.37 81.196,336.37 81.196,317.12  "/>
	<rect x="18.549" y="197.079" style="fill:#E5A030;" width="381.02" height="11.03"/>
	<polyline style="fill:#E5A030;" points="376.681,316.045 336.917,316.045 336.917,336.37 376.681,336.37 376.681,317.12  "/>
	<rect x="44.279" y="105.399" style="fill:#E5A030;" width="13" height="102.71"/>
	<rect x="360.839" y="105.399" style="fill:#E5A030;" width="13" height="102.71"/>
	<path style="fill:#F2F2F2;" d="M179.259,197.079H51.509c3.54-15.29,17.24-26.68,33.6-26.68h60.54   C162.009,170.399,175.719,181.789,179.259,197.079z"/>
	<path style="fill:#F2F2F2;" d="M366.609,197.079h-127.76c3.54-15.29,17.25-26.68,33.61-26.68h60.54   C349.359,170.399,363.069,181.789,366.609,197.079z"/>
	<path style="fill:#E6E6E6;" d="M180.149,204.899c0-2.69-0.31-5.31-0.89-7.82H81.515c3.506-15.131,16.956-26.454,33.106-26.681   H85.114c-16.363,0-30.055,11.395-33.598,26.681h-0.006c-0.017,0.072-0.028,0.146-0.044,0.218c-0.109,0.483-0.206,0.969-0.294,1.459   c-0.023,0.125-0.046,0.25-0.067,0.376c-0.088,0.524-0.163,1.053-0.228,1.585c-0.012,0.096-0.026,0.192-0.037,0.288   c-0.069,0.611-0.123,1.226-0.159,1.846c-0.001,0.018-0.003,0.036-0.004,0.054c-0.038,0.659-0.061,1.323-0.061,1.992v3.214h30   v-0.001h99.534V204.899z"/>
	<path style="fill:#E6E6E6;" d="M367.499,204.899c0-2.69-0.31-5.31-0.89-7.82h-97.744c3.506-15.131,16.955-26.454,33.096-26.681   h-29.499c-12.014,0-22.594,6.141-28.771,15.455c-2.236,3.373-3.891,7.163-4.832,11.226h-0.01c-0.186,0.806-0.334,1.626-0.463,2.453   c-0.023,0.15-0.044,0.302-0.065,0.453c-0.096,0.676-0.173,1.358-0.23,2.046c-0.01,0.128-0.024,0.255-0.033,0.383   c-0.059,0.822-0.099,1.648-0.099,2.485v3.21h0.006v0.001h30v-0.001h99.534V204.899z"/>
</g>















</svg>
