<?xml version="1.0" encoding="iso-8859-1"?>
<!-- Generator: Adobe Illustrator 19.0.0, SVG Export Plug-In . SVG Version: 6.00 Build 0)  -->
<svg xmlns="http://www.w3.org/2000/svg" xmlns:xlink="http://www.w3.org/1999/xlink" version="1.1" id="Layer_1" x="0px" y="0px" viewBox="0 0 458.865 458.865" style="enable-background:new 0 0 458.865 458.865;" xml:space="preserve" width="512" height="512">
<g>
	<polyline style="fill:#979797;" points="351.432,427.198 317.432,427.198 317.432,458.865 351.432,458.865 351.432,427.198  "/>
	<polyline style="fill:#979797;" points="141.432,427.198 107.432,427.198 107.432,458.865 141.432,458.865 141.432,427.198  "/>
	<polyline style="fill:#808080;" points="351.432,413.864 317.432,413.864 317.432,445.531 351.432,445.531 351.432,413.864  "/>
	<polyline style="fill:#808080;" points="141.432,413.864 107.432,413.864 107.432,445.531 141.432,445.531 141.432,413.864  "/>
	<rect x="136.172" y="231.384" style="fill:#F24125;" width="28.47" height="25.52"/>
	<path style="fill:#87B6DD;" d="M364.902,14.056v408.338c0,7.439-6.031,13.47-13.47,13.47h-0.001h-34h-176h-34h0   c-7.439,0-13.47-6.031-13.47-13.47V14.056C93.962,6.293,100.256,0,108.019,0h242.827C358.609,0,364.902,6.293,364.902,14.056z"/>
	<rect x="138.768" y="229.333" style="fill:#F24125;" width="31.333" height="34"/>
	<path style="fill:#FFFFFF;" d="M113.595,33.083v376.96h231.68V33.083H113.595z M164.645,250.183c0,3.71-3.01,6.72-6.73,6.72h-21.74   v-25.52h21.74c3.72,0,6.73,3.01,6.73,6.72V250.183z"/>
	<path style="fill:#CCCCCC;" d="M162.862,186.334h-24.729c-3.313,0-6-2.687-6-6s2.687-6,6-6h24.729   c4.631,0,8.933-2.306,11.508-6.168c1.838-2.756,5.561-3.503,8.32-1.665c2.757,1.838,3.502,5.563,1.664,8.321   C179.549,182.031,171.514,186.334,162.862,186.334z"/>
	<path style="fill:#979797;" d="M255.555,93.353h-12c0-0.8-0.05-1.58-0.15-2.35c-1.16-9.12-8.97-16.2-18.39-16.2h-64.3   c-10.23,0-18.54,8.33-18.54,18.55v316.69h-12V93.353c0-16.84,13.7-30.55,30.54-30.55h64.3c16.05,0,29.25,12.45,30.45,28.2   C255.525,91.783,255.555,92.563,255.555,93.353z"/>
	<path style="fill:#E6E6E6;" d="M305.022,104.894v9.67h-110.93v-9.67c0-7.67,6.22-13.89,13.89-13.89h83.14   C298.802,91.004,305.022,97.224,305.022,104.894"/>
	<path style="fill:#CCCCCC;" d="M207.982,91.004c-7.67,0-13.89,6.22-13.89,13.89v9.67h29v-6v-3.67c0-2.931,0.908-5.649,2.458-7.89   c2.507-3.625,6.693-6,11.432-6H207.982z"/>
	<g>
		<path style="fill:#87B6DD;" d="M292.432,388.064c-1.933,0-3.5-1.567-3.5-3.5v-35c0-1.933,1.567-3.5,3.5-3.5s3.5,1.567,3.5,3.5v35    C295.932,386.497,294.365,388.064,292.432,388.064z"/>
		<path style="fill:#87B6DD;" d="M292.432,327.064c-1.933,0-3.5-1.567-3.5-3.5v-82c0-1.933,1.567-3.5,3.5-3.5s3.5,1.567,3.5,3.5v82    C295.932,325.497,294.365,327.064,292.432,327.064z"/>
		<path style="fill:#87B6DD;" d="M292.432,221.064c-1.933,0-3.5-1.567-3.5-3.5v-84c0-1.933,1.567-3.5,3.5-3.5s3.5,1.567,3.5,3.5v84    C295.932,219.497,294.365,221.064,292.432,221.064z"/>
		<path style="fill:#87B6DD;" d="M263.098,388.064c-1.933,0-3.5-1.567-3.5-3.5v-78c0-1.933,1.567-3.5,3.5-3.5s3.5,1.567,3.5,3.5v78    C266.598,386.497,265.031,388.064,263.098,388.064z"/>
		<path style="fill:#87B6DD;" d="M263.098,266.064c-1.933,0-3.5-1.567-3.5-3.5v-65c0-1.933,1.567-3.5,3.5-3.5s3.5,1.567,3.5,3.5v65    C266.598,264.497,265.031,266.064,263.098,266.064z"/>
		<path style="fill:#87B6DD;" d="M263.095,287.763c-1.966,0-3.576-1.693-3.493-3.653c0.077-1.816,1.568-3.235,3.364-3.297    c1.829-0.063,3.426,1.26,3.613,3.106C266.784,285.951,265.134,287.763,263.095,287.763z"/>
		<path style="fill:#87B6DD;" d="M263.098,174.064c-1.933,0-3.5-1.567-3.5-3.5v-37c0-1.933,1.567-3.5,3.5-3.5s3.5,1.567,3.5,3.5v37    C266.598,172.497,265.031,174.064,263.098,174.064z"/>
		<path style="fill:#87B6DD;" d="M233.765,388.064c-1.933,0-3.5-1.567-3.5-3.5V237.564c0-1.933,1.567-3.5,3.5-3.5s3.5,1.567,3.5,3.5    v147.001C237.265,386.497,235.698,388.064,233.765,388.064z"/>
		<path style="fill:#87B6DD;" d="M233.765,217.064c-1.933,0-3.5-1.567-3.5-3.5v-80c0-1.933,1.567-3.5,3.5-3.5s3.5,1.567,3.5,3.5v80    C237.265,215.497,235.698,217.064,233.765,217.064z"/>
		<path style="fill:#87B6DD;" d="M204.432,388.064c-1.933,0-3.5-1.567-3.5-3.5v-30c0-1.933,1.567-3.5,3.5-3.5s3.5,1.567,3.5,3.5v30    C207.932,386.497,206.365,388.064,204.432,388.064z"/>
		<path style="fill:#87B6DD;" d="M204.432,332.065c-1.933,0-3.5-1.567-3.5-3.5v-146c0-1.933,1.567-3.5,3.5-3.5s3.5,1.567,3.5,3.5    v146C207.932,330.498,206.365,332.065,204.432,332.065z"/>
		<path style="fill:#87B6DD;" d="M204.432,163.064c-1.933,0-3.5-1.567-3.5-3.5v-26c0-1.933,1.567-3.5,3.5-3.5s3.5,1.567,3.5,3.5v26    C207.932,161.497,206.365,163.064,204.432,163.064z"/>
	</g>
</g>















</svg>
