<?xml version="1.0" encoding="iso-8859-1"?>
<!-- Generator: Adobe Illustrator 19.0.0, SVG Export Plug-In . SVG Version: 6.00 Build 0)  -->
<svg xmlns="http://www.w3.org/2000/svg" xmlns:xlink="http://www.w3.org/1999/xlink" version="1.1" id="Layer_1" x="0px" y="0px" viewBox="0 0 400.666 400.666" style="enable-background:new 0 0 400.666 400.666;" xml:space="preserve" width="512" height="512">
<g>
	<rect x="297.689" y="367.666" style="fill:#E6E6E6;" width="24" height="33"/>
	<rect x="84.689" y="367.666" style="fill:#E6E6E6;" width="24" height="33"/>
	<path style="fill:#CCCCCC;" d="M297.689,367.666v17h24v-17H297.689z M84.689,384.666h24v-17h-24V384.666z"/>
	<path style="fill:#DD3B2A;" d="M155.186,34c-3.313,0-6-2.687-6-6V12h-27v16c0,3.313-2.687,6-6,6s-6-2.687-6-6V6   c0-3.313,2.687-6,6-6h39c3.313,0,6,2.687,6,6v22C161.186,31.313,158.5,34,155.186,34z"/>
	<g>
		<path style="fill:#DD3B2A;" d="M204.399,51.667h-23.75c-3.313,0-6-2.687-6-6s2.687-6,6-6h23.75c3.313,0,6,2.687,6,6    S207.713,51.667,204.399,51.667z"/>
		<path style="fill:#DD3B2A;" d="M90.729,51.667h-23.75c-3.313,0-6-2.687-6-6s2.687-6,6-6h23.75c3.313,0,6,2.687,6,6    S94.043,51.667,90.729,51.667z"/>
	</g>
	<rect x="226.186" y="105.002" style="fill:#B3B3B3;" width="89" height="14.664"/>
	<rect x="91.186" y="101.667" style="fill:#B3B3B3;" width="89" height="18"/>
	<rect x="91.186" y="101.667" style="fill:#999999;" width="24" height="18"/>
	<rect x="226.186" y="105.002" style="fill:#999999;" width="24" height="14.664"/>
	<path style="fill:#E6E6E6;" d="M339.686,124.305v239.39c0,5.139-4.166,9.305-9.305,9.305h-8.695h-24h-189h-24h-8.695   c-5.139,0-9.305-4.166-9.305-9.305v-239.39c0-5.139,4.166-9.305,9.305-9.305h15.195h89h46h89h15.195   C335.52,115,339.686,119.166,339.686,124.305z"/>
	<polygon style="fill:#B3B3B3;" points="276.686,186 297.686,186 297.686,326 108.686,326 108.686,186 211.686,186  "/>
	<path style="fill:#B3B3B3;" d="M211.686,167.78h-101.75c-8.547,0-15.5-6.953-15.5-15.5c0-4.143,1.611-8.036,4.536-10.962   c2.928-2.926,6.82-4.538,10.964-4.538h4.5c3.313,0,6,2.687,6,6s-2.687,6-6,6h-4.5c-0.938,0-1.818,0.363-2.479,1.023   c-0.658,0.659-1.021,1.539-1.021,2.477c0,1.93,1.57,3.5,3.5,3.5h101.75c3.313,0,6,2.687,6,6S215,167.78,211.686,167.78z"/>
	<path style="fill:#B3B3B3;" d="M296.436,167.78h-19.75c-3.313,0-6-2.687-6-6s2.687-6,6-6h19.75c0.938,0,1.817-0.363,2.477-1.022   c0.66-0.66,1.023-1.54,1.023-2.478c0-1.93-1.57-3.5-3.5-3.5h-4.5c-3.313,0-6-2.687-6-6s2.687-6,6-6h4.5   c8.547,0,15.5,6.953,15.5,15.5c0,4.143-1.611,8.036-4.538,10.962C304.474,166.168,300.58,167.78,296.436,167.78z"/>
	<rect x="136.686" y="214.2" style="fill:#999999;" width="75" height="12"/>
	<rect x="136.686" y="250" style="fill:#999999;" width="133" height="12"/>
	<rect x="136.686" y="285.8" style="fill:#999999;" width="133" height="12"/>
	<rect x="211.689" y="150.999" style="fill:#F7B239;" width="65" height="84.98"/>
	<rect x="211.689" y="150.999" style="fill:#E5A030;" width="65" height="11.65"/>
	<path style="fill:#F24125;" d="M188.939,22.002V95.38c0,5.314-4.308,9.622-9.622,9.622H92.061c-5.314,0-9.622-4.308-9.622-9.622   V22.002H188.939z"/>
	<path style="fill:#DD3B2A;" d="M110.439,22.002v83H92.061c-5.314,0-9.622-4.308-9.622-9.622V22.002H110.439z"/>
</g>















</svg>
