<?xml version="1.0" encoding="iso-8859-1"?>
<!-- Generator: Adobe Illustrator 19.0.0, SVG Export Plug-In . SVG Version: 6.00 Build 0)  -->
<svg xmlns="http://www.w3.org/2000/svg" xmlns:xlink="http://www.w3.org/1999/xlink" version="1.1" id="Layer_1" x="0px" y="0px" viewBox="0 0 413.98 413.98" style="enable-background:new 0 0 413.98 413.98;" xml:space="preserve" width="512" height="512">
<g>
	<polygon style="fill:#CCCCCC;" points="140.61,51.325 125.67,80.675 64.993,110.259 28.31,80.675 13.37,51.325  "/>
	<polygon style="fill:#CCCCCC;" points="400.61,51.325 385.67,80.675 335.993,96.259 288.31,80.675 273.37,51.325  "/>
	<polygon style="fill:#E6E6E6;" points="140.61,51.325 125.67,80.675 53.31,80.675 38.37,51.325  "/>
	<polygon style="fill:#E6E6E6;" points="400.61,51.325 385.67,80.675 313.31,80.675 298.37,51.325  "/>
	<polyline style="fill:#F24125;" points="248.03,143.665 291.99,187.625 335.95,143.665 248.03,143.665  "/>
	<polyline style="fill:#9E3B2B;" points="335.95,143.665 295.993,114.259 248.03,143.665 291.99,187.625 335.95,143.665  "/>
	<polyline style="fill:#F7B239;" points="348.74,143.665 348.74,362.655 381.73,362.655 393.54,170.665 395.2,143.665    373.993,124.259 348.74,143.665  "/>
	<polyline style="fill:#F7B239;" points="18.78,143.665 20.44,170.665 32.25,362.655 65.25,362.655 65.25,143.665 38.993,122.259    18.78,143.665  "/>
	<polygon style="fill:#F7B239;" points="385.67,80.675 288.31,80.675 219.493,80.675 107.993,97.259 46.61,80.675 0,80.675    0,143.665 18.78,143.665 109.6,143.665 288.03,143.665 335.95,143.665 348.74,143.665 395.2,143.665 413.98,143.665 413.98,80.675     "/>
	<polyline style="fill:#E5A030;" points="65.25,143.665 18.78,143.665 20.44,170.665 65.25,170.665 65.25,143.665  "/>
	<polyline style="fill:#E5A030;" points="395.2,143.665 348.74,143.665 348.74,170.665 393.54,170.665 395.2,143.665  "/>
	<polygon style="fill:#F24125;" points="46.61,80.675 109.6,143.665 133.56,167.625 157.52,143.665 220.52,80.675 125.67,80.675     "/>
</g>















</svg>
