<?xml version="1.0" encoding="iso-8859-1"?>
<!-- Generator: Adobe Illustrator 19.0.0, SVG Export Plug-In . SVG Version: 6.00 Build 0)  -->
<svg version="1.1" id="Layer_1" xmlns="http://www.w3.org/2000/svg" xmlns:xlink="http://www.w3.org/1999/xlink" x="0px" y="0px"
	 viewBox="0 0 512 512" style="enable-background:new 0 0 512 512;" xml:space="preserve">
<path style="fill:#967A56;" d="M467.931,407.477c-24.425,31.787-56.199,58.096-91.89,76.084C338.602,502.432,298.213,512,256,512
	s-82.601-9.568-120.042-28.438c-35.69-17.988-67.465-44.297-91.888-76.084c-3.745-4.874-2.829-11.862,2.045-15.607
	c4.875-3.745,11.862-2.829,15.607,2.045c4.282,5.573,8.769,10.922,13.439,16.053l106.185-106.185c4.346-4.346,11.394-4.346,15.742,0
	c4.346,4.346,4.346,11.394,0,15.742L90.869,425.744c44.765,41.072,103.022,63.996,165.131,63.996s120.366-22.923,165.131-63.998
	L314.912,319.522c-4.346-4.346-4.346-11.394,0-15.742c4.346-4.346,11.394-4.346,15.742,0l106.187,106.187
	c4.67-5.131,9.158-10.48,13.44-16.053c3.745-4.874,10.734-5.79,15.607-2.045C470.761,395.616,471.677,402.603,467.931,407.477z"/>
<path style="fill:#B79969;" d="M460.893,393.951c-23.361,27.876-52.489,51.04-84.852,67.35
	c-37.439,18.871-77.828,28.438-120.042,28.438s-82.601-9.568-120.042-28.438c-32.363-16.311-61.49-39.475-84.852-67.35
	c-1.455-1.736-0.22-4.385,2.045-4.385h19.683l5.079-4.61L181.078,281.79c4.192-4.192,11.015-4.689,15.469-0.777
	c4.881,4.287,5.061,11.728,0.542,16.249L90.87,403.482c44.764,41.074,103.021,63.997,165.13,63.997s120.366-22.923,165.13-63.998
	L314.911,297.262c-4.52-4.52-4.34-11.962,0.542-16.249c4.454-3.912,11.277-3.415,15.469,0.777l103.165,103.166l5.079,4.61h19.683
	C461.114,389.565,462.348,392.214,460.893,393.951z"/>
<path style="fill:#F4CD7D;" d="M512,138.919c0,15.485-12.553,28.038-28.038,28.038h-49.875c-12.295,0-22.261,9.966-22.261,22.261
	v89.043c0,24.588-19.934,44.522-44.522,44.522H144.696c-24.588,0-44.522-19.934-44.522-44.522v-11.13H0v-33.391
	c0-36.883,29.9-66.783,66.783-66.783h33.391h139.873v-33.391C240.047,59.799,299.846,0,373.612,0h11.13l77.913,77.913l-0.028,0.019
	l41.16,41.16C509.046,124.35,512,131.483,512,138.919z"/>
<path style="fill:#B79969;" d="M66.783,166.957h33.391V267.13H0v-33.391C0,196.856,29.9,166.957,66.783,166.957z M384.742,0h-11.13
	c-73.766,0-133.565,59.799-133.565,133.565v33.391h49.345c9.22,0,16.696-7.475,16.696-16.696l0,0
	c0-49.178,39.866-89.043,89.043-89.043h16.696H434.3h11.66L384.742,0z"/>
<g>
</g>
<g>
</g>
<g>
</g>
<g>
</g>
<g>
</g>
<g>
</g>
<g>
</g>
<g>
</g>
<g>
</g>
<g>
</g>
<g>
</g>
<g>
</g>
<g>
</g>
<g>
</g>
<g>
</g>
</svg>
